<svg width="522" height="114" viewBox="0 0 522 114" fill="none" xmlns="http://www.w3.org/2000/svg">
<g clip-path="url(#clip0_436_192)">
<path fill-rule="evenodd" clip-rule="evenodd" d="M371.785 13.6456H522.054V111.225H371.785V13.6456Z" fill="#F17E00"/>
<path d="M198.033 68.2705C198.033 78.5494 196.177 87.4324 192.465 94.9195C188.753 102.407 183.661 108.18 177.189 112.241C170.717 116.302 163.326 118.332 155.014 118.332C146.702 118.332 139.31 116.302 132.838 112.241C126.366 108.18 121.274 102.407 117.562 94.9195C113.851 87.4324 111.995 78.5494 111.995 68.2705C111.995 57.9917 113.851 49.1087 117.562 41.6216C121.274 34.1345 126.366 28.3606 132.838 24.2998C139.31 20.239 146.702 18.2086 155.014 18.2086C163.326 18.2086 170.717 20.239 177.189 24.2998C183.661 28.3606 188.753 34.1345 192.465 41.6216C196.177 49.1087 198.033 57.9917 198.033 68.2705ZM186.612 68.2705C186.612 59.8317 185.2 52.7095 182.376 46.9038C179.585 41.0982 175.793 36.7043 171.003 33.7221C166.244 30.74 160.914 29.2489 155.014 29.2489C149.113 29.2489 143.767 30.74 138.977 33.7221C134.218 36.7043 130.427 41.0982 127.603 46.9038C124.812 52.7095 123.416 59.8317 123.416 68.2705C123.416 76.7094 124.812 83.8316 127.603 89.6373C130.427 95.4429 134.218 99.8368 138.977 102.819C143.767 105.801 149.113 107.292 155.014 107.292C160.914 107.292 166.244 105.801 171.003 102.819C175.793 99.8368 179.585 95.4429 182.376 89.6373C185.2 83.8316 186.612 76.7094 186.612 68.2705ZM217.294 19.5411L246.227 101.582H247.369L276.302 19.5411H288.675L252.889 117H240.707L204.921 19.5411H217.294ZM299.477 117H287.104L322.89 19.5411H335.072L370.858 117H358.485L329.362 34.9594H328.6L299.477 117ZM304.045 78.9301H353.917V89.3993H304.045V78.9301Z" fill="white"/>
<path d="M395.207 74.4517V55.2674H399.482V70.6368H407.647V74.4517H395.207ZM412.989 41.0094H417.396V49.936C414.931 52.6501 411.408 54.0071 406.826 54.0071C402.966 54.0071 399.736 52.7372 397.133 50.1973C394.531 47.6575 393.23 44.4455 393.23 40.561C393.23 36.6766 394.556 33.4398 397.208 30.85C399.86 28.2606 403.066 26.9657 406.826 26.9657C410.586 26.9657 413.711 28.061 416.201 30.2525L413.848 33.6141C412.827 32.7424 411.8 32.1387 410.766 31.8025C409.733 31.4663 408.532 31.2982 407.162 31.2982C404.523 31.2982 402.306 32.1511 400.513 33.8567C398.721 35.5623 397.824 37.8034 397.824 40.5797C397.824 43.3562 398.696 45.5848 400.439 47.2655C402.182 48.9461 404.292 49.7866 406.77 49.7866C409.247 49.7866 411.32 49.2511 412.989 48.1805V41.0094ZM424.693 53.7083H420.51V25.9946H424.693V53.7083ZM433.317 48.4608C434.499 49.6681 436 50.2719 437.817 50.2719C439.635 50.2719 441.135 49.6681 442.318 48.4608C443.501 47.253 444.092 45.6902 444.092 43.7732C444.092 41.8558 443.501 40.2934 442.318 39.0858C441.135 37.878 439.635 37.2742 437.817 37.2742C436 37.2742 434.499 37.878 433.317 39.0858C432.134 40.2934 431.542 41.8558 431.542 43.7732C431.542 45.6902 432.134 47.253 433.317 48.4608ZM445.287 51.0378C443.295 53.0172 440.805 54.0071 437.817 54.0071C434.829 54.0071 432.339 53.0172 430.347 51.0378C428.355 49.0584 427.359 46.6367 427.359 43.7732C427.359 40.9096 428.355 38.4883 430.347 36.5085C432.339 34.5288 434.829 33.5393 437.817 33.5393C440.805 33.5393 443.295 34.5288 445.287 36.5085C447.279 38.4883 448.275 40.9096 448.275 43.7732C448.275 46.6367 447.279 49.0584 445.287 51.0378ZM461.586 33.5393C464.25 33.5393 466.529 34.4605 468.421 36.3033C470.313 38.1458 471.259 40.5984 471.259 43.6612C471.259 46.7238 470.319 49.2137 468.44 51.1311C466.56 53.0484 464.368 54.0071 461.866 54.0071C459.364 54.0071 457.117 52.9115 455.125 50.7203V53.7083H450.941V25.9946H455.125V37.3116C456.768 34.7967 458.922 33.5393 461.586 33.5393ZM455.049 43.8103C455.049 45.703 455.622 47.253 456.768 48.4608C457.913 49.6681 459.308 50.2719 460.951 50.2719C462.594 50.2719 464.026 49.6743 465.246 48.4793C466.466 47.2842 467.076 45.7339 467.076 43.8293C467.076 41.9241 466.479 40.343 465.284 39.0858C464.088 37.8284 462.657 37.1996 460.988 37.1996C459.32 37.1996 457.913 37.8284 456.768 39.0858C455.622 40.343 455.049 41.9182 455.049 43.8103ZM490.061 53.7083H486.251V51.0565C484.607 53.0235 482.404 54.0071 479.64 54.0071C477.573 54.0071 475.861 53.422 474.505 52.2516C473.147 51.0812 472.469 49.519 472.469 47.5642C472.469 45.6095 473.191 44.1465 474.635 43.1756C476.079 42.2045 478.034 41.7189 480.499 41.7189H485.915V40.972C485.915 38.3324 484.446 37.0128 481.508 37.0128C479.665 37.0128 477.748 37.6852 475.755 39.0297L473.888 36.415C476.304 34.4979 479.043 33.5393 482.105 33.5393C484.446 33.5393 486.357 34.1308 487.838 35.3135C489.32 36.4961 490.061 38.3576 490.061 40.8971V53.7083ZM485.878 46.313V44.6321H481.171C478.158 44.6321 476.652 45.5783 476.652 47.471C476.652 48.4418 477.026 49.1828 477.773 49.6933C478.52 50.2036 479.559 50.459 480.891 50.459C482.223 50.459 483.387 50.0854 484.384 49.3384C485.379 48.5915 485.878 47.5829 485.878 46.313ZM497.993 53.7083H493.81V25.9946H497.993V53.7083ZM401.793 81.6857C401.031 81.6857 400.431 81.8668 399.992 82.2285C399.552 82.5902 399.333 83.0693 399.333 83.666C399.333 84.2621 399.601 84.7366 400.138 85.0884C400.675 85.4405 401.915 85.856 403.857 86.3351C405.8 86.8141 407.308 87.533 408.382 88.4911C409.456 89.4492 409.993 90.8476 409.993 92.6855C409.993 94.5241 409.304 96.0151 407.928 97.1592C406.552 98.303 404.741 98.875 402.495 98.875C399.255 98.875 396.336 97.6723 393.739 95.2671L396.462 91.923C398.669 93.8591 400.709 94.8271 402.584 94.8271C403.423 94.8271 404.082 94.6463 404.56 94.2843C405.039 93.9226 405.277 93.4339 405.277 92.8176C405.277 92.2017 405.024 91.713 404.516 91.351C404.009 90.9893 403.003 90.6228 401.5 90.2512C399.118 89.6839 397.376 88.9458 396.273 88.0364C395.169 87.1274 394.618 85.6996 394.618 83.7539C394.618 81.8079 395.316 80.3072 396.712 79.2513C398.108 78.1951 399.85 77.667 401.939 77.667C403.306 77.667 404.672 77.9017 406.039 78.3712C407.406 78.8406 408.597 79.5056 409.612 80.3659L407.298 83.7096C405.522 82.3606 403.687 81.6857 401.793 81.6857ZM415.247 90.7498C415.247 92.0404 415.612 93.0915 416.345 93.903C417.077 94.7146 418.014 95.1205 419.156 95.1205C420.298 95.1205 421.236 94.7146 421.967 93.903C422.7 93.0915 423.066 92.0404 423.066 90.7498C423.066 89.4589 422.7 88.403 421.967 87.5818C421.236 86.7606 420.298 86.3498 419.156 86.3498C418.014 86.3498 417.077 86.7606 416.345 87.5818C415.612 88.403 415.247 89.4589 415.247 90.7498ZM427.488 90.7498C427.488 93.0379 426.697 94.9638 425.116 96.5285C423.534 98.0929 421.548 98.875 419.156 98.875C416.764 98.875 414.778 98.0929 413.197 96.5285C411.615 94.9638 410.824 93.0379 410.824 90.7498C410.824 88.4616 411.615 86.5307 413.197 84.9566C414.778 83.3822 416.764 82.5951 419.156 82.5951C421.548 82.5951 423.534 83.3822 425.116 84.9566C426.697 86.5307 427.488 88.4616 427.488 90.7498ZM433.562 98.6403H429.169V76.8753H433.562V98.6403ZM446.313 91.3657V82.8593H450.735V98.6403H446.313V96.5577C445.22 98.1026 443.809 98.875 442.081 98.875C440.353 98.875 438.904 98.3322 437.732 97.2471C436.561 96.1617 435.975 94.5533 435.975 92.4216V82.8593H440.397V91.4536C440.397 93.8787 441.285 95.091 443.062 95.091C443.941 95.091 444.702 94.7733 445.346 94.1377C445.991 93.5022 446.313 92.5781 446.313 91.3657ZM458.566 86.0273V93.0963C458.566 93.7026 458.722 94.1769 459.034 94.519C459.347 94.8611 459.718 95.0324 460.147 95.0324C460.967 95.0324 461.66 94.6607 462.227 93.9178L463.867 96.9976C462.5 98.2491 461.06 98.875 459.547 98.875C458.034 98.875 456.755 98.3764 455.711 97.3789C454.666 96.3816 454.144 95.0227 454.144 93.3018V86.0273H452.299V82.8593H454.144V78.1364H458.566V82.8593H462.373V86.0273H458.566ZM469.033 98.6403H464.64V82.8593H469.033V98.6403ZM465.006 80.8501C464.508 80.3514 464.259 79.7403 464.259 79.0166C464.259 78.2932 464.508 77.6821 465.006 77.1832C465.503 76.6845 466.114 76.4351 466.836 76.4351C467.559 76.4351 468.169 76.6845 468.667 77.1832C469.164 77.6821 469.413 78.2932 469.413 79.0166C469.413 79.7403 469.164 80.3514 468.667 80.8501C468.169 81.3487 467.559 81.5978 466.836 81.5978C466.114 81.5978 465.503 81.3487 465.006 80.8501ZM475.136 90.7498C475.136 92.0404 475.502 93.0915 476.234 93.903C476.966 94.7146 477.903 95.1205 479.045 95.1205C480.187 95.1205 481.125 94.7146 481.857 93.903C482.589 93.0915 482.955 92.0404 482.955 90.7498C482.955 89.4589 482.589 88.403 481.857 87.5818C481.125 86.7606 480.187 86.3498 479.045 86.3498C477.903 86.3498 476.966 86.7606 476.234 87.5818C475.502 88.403 475.136 89.4589 475.136 90.7498ZM487.377 90.7498C487.377 93.0379 486.586 94.9638 485.005 96.5285C483.423 98.0929 481.437 98.875 479.045 98.875C476.654 98.875 474.667 98.0929 473.086 96.5285C471.504 94.9638 470.714 93.0379 470.714 90.7498C470.714 88.4616 471.504 86.5307 473.086 84.9566C474.667 83.3822 476.654 82.5951 479.045 82.5951C481.437 82.5951 483.423 83.3822 485.005 84.9566C486.586 86.5307 487.377 88.4616 487.377 90.7498ZM493.451 89.8404V98.6403H489.058V82.8593H493.451V84.6193C494.779 83.27 496.272 82.5951 497.932 82.5951C499.591 82.5951 500.982 83.1818 502.105 84.3551C503.227 85.5286 503.789 87.0928 503.789 89.0484V98.6403H499.396V89.7231C499.396 87.2983 498.508 86.0859 496.731 86.0859C495.852 86.0859 495.086 86.4037 494.432 87.0392C493.778 87.6747 493.451 88.6085 493.451 89.8404ZM421.66 72.3113C419.998 73.8845 418.048 74.6714 415.81 74.6714C413.572 74.6714 411.723 73.9806 410.261 72.5993C408.8 71.2179 408.069 69.3652 408.069 67.0414C408.069 64.7178 408.814 62.8699 410.303 61.4976C411.791 60.1254 413.55 59.4391 415.577 59.4391C417.605 59.4391 419.327 60.0523 420.742 61.278C422.158 62.5039 422.866 64.1872 422.866 66.3279V68.5236H412.125C412.253 69.3286 412.673 69.9874 413.385 70.4996C414.098 71.0118 414.901 71.2681 415.797 71.2681C417.24 71.2681 418.427 70.7834 419.358 69.8136L421.66 72.3113ZM418.701 65.5869C418.61 64.7087 418.281 64.0318 417.714 63.5559C417.149 63.0802 416.459 62.8424 415.646 62.8424C414.833 62.8424 414.089 63.0893 413.413 63.5834C412.737 64.0772 412.344 64.7453 412.234 65.5869H418.701ZM436.879 74.4517H433.016V72.6678C431.956 74.0035 430.645 74.6714 429.083 74.6714C427.522 74.6714 426.211 74.2187 425.151 73.3127C424.092 72.4071 423.562 71.1995 423.562 69.6901C423.562 68.1806 424.11 67.0507 425.206 66.3004C426.302 65.5503 427.8 65.1753 429.7 65.1753H432.769V65.0928C432.769 63.5193 431.938 62.7327 430.276 62.7327C429.563 62.7327 428.809 62.8744 428.015 63.1579C427.22 63.4416 426.549 63.7937 426.001 64.2147L424.165 61.5524C426.101 60.1435 428.311 59.4391 430.796 59.4391C432.586 59.4391 434.047 59.8873 435.18 60.7839C436.313 61.6805 436.879 63.0984 436.879 65.0381V74.4517ZM432.741 68.8255V68.112H430.166C428.522 68.112 427.699 68.6242 427.699 69.6487C427.699 70.1796 427.896 70.5864 428.289 70.8701C428.682 71.1539 429.243 71.2956 429.974 71.2956C430.705 71.2956 431.349 71.0714 431.906 70.6229C432.463 70.1751 432.741 69.5755 432.741 68.8255ZM446.919 63.309C445.695 63.309 444.782 63.7435 444.179 64.6126C443.576 65.4817 443.275 66.6298 443.275 68.057V74.4517H439.164V59.686H443.275V61.6348C443.804 61.0311 444.467 60.5186 445.261 60.0976C446.056 59.677 446.864 59.4573 447.686 59.4391L447.714 63.309H446.919ZM453.068 66.2182V74.4517H448.958V59.686H453.068V61.3327C454.31 60.0704 455.708 59.4391 457.26 59.4391C458.813 59.4391 460.115 59.9879 461.165 61.0858C462.215 62.1836 462.74 63.6474 462.74 65.4772V74.4517H458.63V66.1082C458.63 63.8396 457.799 62.7049 456.137 62.7049C455.315 62.7049 454.598 63.0023 453.986 63.5973C453.374 64.1917 453.068 65.0653 453.068 66.2182ZM469.108 74.4517H464.998V59.686H469.108V74.4517ZM465.341 57.8061C464.875 57.3395 464.642 56.7678 464.642 56.0906C464.642 55.4136 464.875 54.8419 465.341 54.3756C465.807 53.909 466.378 53.6754 467.054 53.6754C467.729 53.6754 468.3 53.909 468.766 54.3756C469.232 54.8419 469.465 55.4136 469.465 56.0906C469.465 56.7678 469.232 57.3395 468.766 57.8061C468.3 58.2727 467.729 58.506 467.054 58.506C466.378 58.506 465.807 58.2727 465.341 57.8061ZM475.641 66.2182V74.4517H471.531V59.686H475.641V61.3327C476.883 60.0704 478.281 59.4391 479.833 59.4391C481.386 59.4391 482.688 59.9879 483.738 61.0858C484.789 62.1836 485.314 63.6474 485.314 65.4772V74.4517H481.204V66.1082C481.204 63.8396 480.372 62.7049 478.71 62.7049C477.888 62.7049 477.171 63.0023 476.559 63.5973C475.947 64.1917 475.641 65.0653 475.641 66.2182ZM497.902 66.7534C497.902 65.5733 497.573 64.6447 496.915 63.9675C496.258 63.2906 495.445 62.9521 494.477 62.9521C493.509 62.9521 492.673 63.2906 491.969 63.9675C491.266 64.6447 490.915 65.5685 490.915 66.7398C490.915 67.9105 491.257 68.8575 491.942 69.5801C492.627 70.3029 493.463 70.6643 494.449 70.6643C495.436 70.6643 496.258 70.3074 496.915 69.594C497.573 68.8802 497.902 67.9337 497.902 66.7534ZM498.477 71.9541C497.18 73.3995 495.568 74.1223 493.641 74.1223C491.714 74.1223 490.088 73.4684 488.764 72.1602C487.439 70.852 486.777 69.1044 486.777 66.9181C486.777 64.7314 487.457 62.9385 488.818 61.5387C490.18 60.139 491.737 59.4391 493.49 59.4391C495.244 59.4391 496.696 60.162 497.847 61.6073V59.6588H501.957V72.5307C501.957 73.8479 501.729 75.0192 501.272 76.0436C500.815 77.0684 500.203 77.8734 499.436 78.4587C497.92 79.6663 496.13 80.2701 494.066 80.2701C492.97 80.2701 491.851 80.0918 490.709 79.7349C489.567 79.3783 488.567 78.8706 487.709 78.2118L489.298 75.1105C490.65 76.1352 492.079 76.6474 493.586 76.6474C495.093 76.6474 496.285 76.2724 497.162 75.5223C498.039 74.772 498.477 73.5826 498.477 71.9541Z" fill="white"/>
<path d="M102.443 124.607H46.5256C45.0777 122.751 43.835 120.705 42.9483 118.461C38.6991 107.701 42.5497 95.6308 53.4824 90.3867C59.7308 87.3894 75.8449 83.5056 79.52 74.2945C84.1249 62.754 60.5579 63.7039 55.2657 59.5532L62.4767 0.261414H102.443V124.607ZM54.0332 57.9646C53.9977 58.785 53.6621 59.3717 52.6093 59.3774C52.7247 59.4948 52.8483 59.6099 52.9801 59.7218C58.1335 64.1118 75.4438 64.5804 70.3426 72.2654C69.3122 73.8171 65.7323 75.3946 63.7004 76.2351C53.4773 80.4641 41.4825 81.6365 31.5641 86.6158C23.201 90.8145 25.2164 90.1424 18.6109 94.9531L13.0348 100.012C7.0662 106.239 2.4361 114.95 0.2696 124.607H0V0.261414H43.1164L54.0332 57.9646Z" fill="white"/>
</g>
<defs>
<clipPath id="clip0_436_192">
<rect width="522" height="114" fill="white"/>
</clipPath>
</defs>
</svg>
