<svg width="20" height="20" viewBox="0 0 20 20" fill="none" xmlns="http://www.w3.org/2000/svg">
<path fill-rule="evenodd" clip-rule="evenodd" d="M8.31327 0.250019H11.6947C11.9111 0.249881 12.0996 0.249761 12.2776 0.278188C12.9809 0.390494 13.5895 0.829147 13.9185 1.46084C14.0017 1.62073 14.0613 1.79961 14.1295 2.00494L14.2412 2.33984C14.2601 2.39653 14.2655 2.41258 14.27 2.42522C14.4452 2.90933 14.8992 3.23659 15.4138 3.24964C15.4274 3.24998 15.4439 3.25004 15.504 3.25004H18.504C18.9182 3.25004 19.254 3.58582 19.254 4.00004C19.254 4.41425 18.9182 4.75004 18.504 4.75004H1.50391C1.08969 4.75004 0.753906 4.41425 0.753906 4.00004C0.753906 3.58582 1.08969 3.25004 1.50391 3.25004H4.50399C4.56404 3.25004 4.58061 3.24998 4.59414 3.24964C5.10879 3.23659 5.56281 2.90936 5.73793 2.42524C5.74253 2.41251 5.74783 2.39681 5.76682 2.33984L5.87843 2.00496C5.94672 1.79964 6.00623 1.62073 6.08949 1.46084C6.41844 0.829149 7.02704 0.390494 7.73033 0.278188C7.90835 0.249761 8.09688 0.249881 8.31327 0.250019ZM7.01206 3.25004C7.06357 3.14902 7.10921 3.04404 7.14848 2.93548C7.16041 2.90251 7.1721 2.86742 7.18713 2.82234L7.28693 2.52292C7.3781 2.24941 7.39909 2.19363 7.41992 2.15364C7.52957 1.94307 7.73243 1.79686 7.96686 1.75942C8.01139 1.75231 8.07094 1.75004 8.35925 1.75004H11.6487C11.937 1.75004 11.9966 1.75231 12.0411 1.75942C12.2755 1.79686 12.4784 1.94307 12.5881 2.15364C12.6089 2.19363 12.6299 2.2494 12.7211 2.52292L12.8208 2.82216L12.8595 2.9355C12.8988 3.04405 12.9444 3.14902 12.9959 3.25004H7.01206Z" fill="#FF3B30"/>
<path d="M3.919 6.45015C3.89144 6.03685 3.53406 5.72415 3.12077 5.7517C2.70747 5.77925 2.39477 6.13663 2.42232 6.54993L2.88577 13.5017C2.97126 14.7844 3.04032 15.8205 3.2023 16.6336C3.37069 17.4789 3.65711 18.185 4.24871 18.7385C4.8403 19.2919 5.56385 19.5308 6.4185 19.6425C7.24053 19.7501 8.27895 19.7501 9.56451 19.75H10.4434C11.729 19.7501 12.7675 19.7501 13.5895 19.6425C14.4441 19.5308 15.1677 19.2919 15.7593 18.7385C16.3509 18.185 16.6373 17.4789 16.8057 16.6336C16.9677 15.8206 17.0367 14.7844 17.1222 13.5017L17.5857 6.54993C17.6132 6.13663 17.3005 5.77925 16.8872 5.7517C16.4739 5.72415 16.1165 6.03685 16.089 6.45015L15.629 13.3493C15.5392 14.6971 15.4752 15.6349 15.3346 16.3406C15.1982 17.025 15.0079 17.3873 14.7345 17.6431C14.4611 17.8989 14.0869 18.0647 13.3949 18.1552C12.6815 18.2485 11.7415 18.25 10.3907 18.25H9.61731C8.26647 18.25 7.32646 18.2485 6.61306 18.1552C5.92106 18.0647 5.5469 17.8989 5.27349 17.6431C5.00007 17.3873 4.80974 17.025 4.67339 16.3406C4.53282 15.6349 4.46879 14.6971 4.37894 13.3493L3.919 6.45015Z" fill="#FF3B30"/>
<path d="M7.42937 8.25376C7.84153 8.21254 8.20906 8.51325 8.25028 8.92541L8.75028 13.9254C8.79149 14.3376 8.49079 14.7051 8.07863 14.7463C7.66647 14.7875 7.29894 14.4868 7.25772 14.0747L6.75772 9.07467C6.7165 8.66251 7.01721 8.29498 7.42937 8.25376Z" fill="#FF3B30"/>
<path d="M12.5786 8.25376C12.9908 8.29498 13.2915 8.66251 13.2503 9.07467L12.7503 14.0747C12.7091 14.4868 12.3415 14.7875 11.9294 14.7463C11.5172 14.7051 11.2165 14.3376 11.2577 13.9254L11.7577 8.92541C11.7989 8.51325 12.1665 8.21254 12.5786 8.25376Z" fill="#FF3B30"/>
</svg>
